<?xml version="1.0" encoding="utf-8"?>
<!-- Generator: Adobe Illustrator 19.2.0, SVG Export Plug-In . SVG Version: 6.00 Build 0)  -->
<svg version="1.1" id="Layer_1" xmlns="http://www.w3.org/2000/svg" xmlns:xlink="http://www.w3.org/1999/xlink" x="0px" y="0px"
	 viewBox="0 0 1024 768" style="enable-background:new 0 0 1024 768;" xml:space="preserve">
<style type="text/css">
	.st0{fill:#FFFFFF;}
	.st1{fill:#D8D7D6;}
	.st2{fill:#C6C6C6;}
	.st3{fill:#A3A3A3;}
</style>
<rect class="st0" width="1024" height="768"/>
<rect x="234.4" y="78.2" class="st1" width="439.3" height="225.8"/>
<rect class="st1" width="214.5" height="768"/>
<rect x="-1.3" class="st2" width="1025.3" height="50.1"/>
<rect x="234.4" y="360.3" class="st1" width="766.1" height="372.2"/>
<rect x="713" y="78.2" class="st1" width="287.4" height="225.8"/>
<g>
	<path class="st3" d="M734.7,463.3l-17.7,169.1c-0.6,5.8-5.3,10.1-10.9,10.5l-2.2-47.2l5.1,0.5l14-134.1l-148.7-15.5l-2,18.8
		l-11.8,0.5l2.1-20.6c0.7-6.4,6.4-11.1,12.9-10.4l148.7,15.5C730.7,451.1,735.4,456.9,734.7,463.3z M692.7,477.5l7.8,169.9
		c0.3,6.5-4.7,12-11.2,12.3l-149.4,6.9c-6.5,0.3-12-4.7-12.3-11.2l-7.8-169.9c-0.3-6.5,4.7-12,11.2-12.3l149.4-6.9
		C686.9,466,692.4,471,692.7,477.5z M537.8,619.6l149.4-6.9L680.9,478l-149.4,6.9L537.8,619.6z M679.4,572.6
		c-0.2-4.2-1.8-8.1-4.7-11.2l-10.5-11.3c-3.7-3.5-9.5-3.2-12.8,0.6l-19,22l-41.3-50.8c-3.5-4.4-10.3-4.3-13.7,0.1l-32.3,42.5
		c-2.5,3.3-3.7,7.3-3.6,11.4l1.7,37.6l137.6-6.3L679.4,572.6z M655.3,526.1c8.9-0.4,15.8-7.9,15.4-16.8c-0.4-8.9-7.9-15.8-16.8-15.4
		c-8.9,0.4-15.8,7.9-15.4,16.8C638.8,519.7,646.4,526.6,655.3,526.1z"/>
</g>
<g>
	<path class="st3" d="M488.3,155.9l-8.7,82.9c-0.3,2.8-2.6,5-5.4,5.1l-1.1-23.1l2.5,0.3l6.9-65.7l-72.9-7.6l-1,9.2l-5.8,0.3
		l1.1-10.1c0.3-3.2,3.2-5.4,6.3-5.1l72.9,7.6C486.4,149.9,488.7,152.8,488.3,155.9z M467.7,162.8l3.8,83.2c0.1,3.2-2.3,5.9-5.5,6
		l-73.2,3.4c-3.2,0.1-5.9-2.3-6-5.5l-3.8-83.2c-0.1-3.2,2.3-5.9,5.5-6l73.2-3.4C464.9,157.2,467.6,159.7,467.7,162.8z M391.8,232.5
		l73.2-3.4l-3-66l-73.2,3.4L391.8,232.5z M461.2,209.4c-0.1-2-0.9-4-2.3-5.5l-5.1-5.5c-1.8-1.7-4.6-1.6-6.3,0.3l-9.3,10.8L418,184.6
		c-1.7-2.1-5-2.1-6.7,0.1l-15.8,20.8c-1.2,1.6-1.8,3.6-1.7,5.6l0.8,18.4l67.4-3.1L461.2,209.4z M449.4,186.7
		c4.4-0.2,7.7-3.9,7.5-8.3c-0.2-4.4-3.9-7.7-8.3-7.5c-4.4,0.2-7.7,3.9-7.5,8.3C441.4,183.5,445,186.9,449.4,186.7z"/>
</g>
<g>
	<path class="st3" d="M909.4,148.4l-8.7,82.9c-0.3,2.8-2.6,5-5.4,5.1l-1.1-23.1l2.5,0.3l6.9-65.7l-72.9-7.6l-1,9.2l-5.8,0.3
		l1.1-10.1c0.3-3.2,3.2-5.4,6.3-5.1l72.9,7.6C907.4,142.4,909.7,145.2,909.4,148.4z M888.8,155.3l3.8,83.2c0.1,3.2-2.3,5.9-5.5,6
		l-73.2,3.4c-3.2,0.1-5.9-2.3-6-5.5l-3.8-83.2c-0.1-3.2,2.3-5.9,5.5-6l73.2-3.4C885.9,149.7,888.6,152.1,888.8,155.3z M812.9,224.9
		l73.2-3.4l-3-66l-73.2,3.4L812.9,224.9z M882.3,201.9c-0.1-2-0.9-4-2.3-5.5l-5.1-5.5c-1.8-1.7-4.6-1.6-6.3,0.3l-9.3,10.8L839,177.1
		c-1.7-2.1-5-2.1-6.7,0.1l-15.8,20.8c-1.2,1.6-1.8,3.6-1.7,5.6l0.8,18.4l67.4-3.1L882.3,201.9z M870.4,179.2
		c4.4-0.2,7.7-3.9,7.5-8.3c-0.2-4.4-3.9-7.7-8.3-7.5c-4.4,0.2-7.7,3.9-7.5,8.3C862.4,176,866.1,179.4,870.4,179.2z"/>
</g>
</svg>
